<svg width="500" height="500" viewBox="0 0 500 500" fill="none" xmlns="http://www.w3.org/2000/svg">
<path d="M165.7 342.2V322.8C165.7 313.9 158.5 306.8 149.6 307.4C141.7 307.9 135.5 314.5 135.5 322.4V342.5C135.5 350.5 141.7 357 149.6 357.5C158.5 358.2 165.7 351.1 165.7 342.2ZM407.5 200.9C406.3 196.9 401.3 195.6 398.2 198.4C380.2 214.6 352.7 220.5 325.1 206.7C315.3 201.8 307.3 194 302.3 184.3C286.9 154.3 294.8 124.4 314 106.4C317 103.6 316.1 98.5 312.2 97C293.1 89.3 272.3 85 250.5 85C204.2 85 162.4 104.1 132.6 134.9C129.1 138.5 131.7 144.6 136.7 144.6H199.8C210.3 144.6 219.4 152.7 219.8 163.2C220.3 174.3 211.4 183.5 200.4 183.5H107.8C102.9 183.5 98.5 186.5 96.8 191.1L96.7 191.3C93.8 199 99.5 207.2 107.7 207.2H243.7C254.2 207.2 263.3 215.3 263.8 225.8C264.3 236.9 255.4 246.1 244.4 246.1H92.3C88.8 246.1 86 248.9 86 252.4V252.9C86 269.8 88.6 282.5 93.3 297.8C94.5 301.8 99.5 303.1 102.6 300.4C121.1 283.7 149.5 277.9 177.9 293.1C186.4 297.7 193.4 304.7 198 313.2C214.3 343.6 206.4 374.2 186.9 392.3C183.9 395.1 184.9 400.2 188.7 401.7C207.8 409.4 228.6 413.7 250.4 413.7C286.9 413.7 320.6 401.8 347.9 381.7C352.3 378.4 350 371.4 344.5 371.4H283.7C273.2 371.4 264.1 363.3 263.7 352.8C263.2 341.7 272.1 332.5 283.1 332.5H385.3C389.6 332.5 393.6 330.1 395.7 326.3C395.8 326.2 395.8 326 395.9 325.9C400 318.1 394.2 308.7 385.4 308.7H331.2C320.2 308.7 311.3 299.5 311.8 288.4C312.3 277.9 321.3 269.8 331.8 269.8H408.3C411.2 269.8 413.7 267.6 414 264.6C414.5 259.6 414.7 254.5 414.7 249.3C414.7 232.5 412.2 216.2 407.5 200.9ZM180.8 337.6C178 337.6 175.8 339.8 175.8 342.6C175.8 361.9 154.1 376 133.9 362.1C128.7 358.5 125.6 352.5 125.6 346.1V342.6C125.6 339.8 123.4 337.6 120.6 337.6C117.8 337.6 115.6 339.8 115.6 342.6C115.6 360.3 128.6 375.7 145.7 377.4C148.5 377.7 153.2 377.6 155.7 377.4C172.9 376.2 185.8 360.3 185.8 342.6C185.8 339.8 183.6 337.6 180.8 337.6ZM329.3 183.7H362.8C368 183.7 372.3 179.4 372.3 174.2V168L381.5 176.8C384.2 179.4 388.8 177.5 388.8 173.7V141.3C388.8 137.5 384.3 135.6 381.5 138.2L372.3 147V140.8C372.3 135.6 368 131.3 362.8 131.3H329.3C324.1 131.3 319.8 135.6 319.8 140.8V174.3C319.8 179.5 324 183.7 329.3 183.7ZM346 146.3C352.2 146.3 357.2 151.3 357.2 157.5C357.2 163.7 352.2 168.7 346 168.7C339.8 168.7 334.8 163.7 334.8 157.5C334.8 151.3 339.8 146.3 346 146.3Z" fill="url(#paint0_linear_115_532)"/>
<defs>
<linearGradient id="paint0_linear_115_532" x1="86.029" y1="249.369" x2="414.7" y2="249.369" gradientUnits="userSpaceOnUse">
<stop stop-color="#EF8072"/>
<stop offset="1" stop-color="#F7CEA4"/>
</linearGradient>
</defs>
</svg>
