<svg width="50" height="50" viewBox="0 0 50 50" fill="none" xmlns="http://www.w3.org/2000/svg">
<g clip-path="url(#clip0_139_500)">
<path d="M12.6145 38.8018V35.889C12.6145 34.5527 11.5335 33.4867 10.1972 33.5768C9.01108 33.6519 8.0802 34.6428 8.0802 35.8289V38.8468C8.0802 40.0479 9.01108 41.0239 10.1972 41.0989C11.5335 41.204 12.6145 40.138 12.6145 38.8018ZM48.919 17.5866C48.7388 16.986 47.9881 16.7908 47.5227 17.2112C44.8201 19.6436 40.6912 20.5294 36.5472 18.4574C35.0758 17.7217 33.8747 16.5506 33.124 15.0942C30.8118 10.5899 31.9979 6.10068 34.8807 3.39811C35.3311 2.97771 35.196 2.21199 34.6104 1.98677C31.7427 0.830672 28.6197 0.185059 25.3466 0.185059C18.395 0.185059 12.119 3.05278 7.64478 7.67718C7.11928 8.21769 7.50965 9.13356 8.26037 9.13356H17.7344C19.3109 9.13356 20.6772 10.3497 20.7372 11.9262C20.8123 13.5928 19.476 14.9741 17.8245 14.9741H3.92124C3.18554 14.9741 2.52491 15.4245 2.26967 16.1152L2.25466 16.1452C1.81925 17.3013 2.67506 18.5325 3.90623 18.5325H24.3256C25.9021 18.5325 27.2684 19.7487 27.3435 21.3252C27.4186 22.9917 26.0823 24.3731 24.4307 24.3731H1.59403C1.06853 24.3731 0.648132 24.7934 0.648132 25.3189V25.394C0.648132 27.9314 1.0385 29.8382 1.74417 32.1354C1.92434 32.736 2.67505 32.9312 3.1405 32.5258C5.91814 30.0184 10.1822 29.1476 14.4462 31.4298C15.7225 32.1204 16.7735 33.1714 17.4641 34.4476C19.9114 39.012 18.7253 43.6063 15.7975 46.3239C15.3471 46.7443 15.4972 47.51 16.0678 47.7353C18.9355 48.8914 22.0585 49.537 25.3316 49.537C30.8118 49.537 35.8716 47.7503 39.9705 44.7324C40.6311 44.2369 40.2858 43.1859 39.46 43.1859H30.3313C28.7548 43.1859 27.3885 41.9698 27.3285 40.3933C27.2534 38.7267 28.5897 37.3454 30.2413 37.3454H45.5858C46.2315 37.3454 46.832 36.985 47.1473 36.4145C47.1623 36.3995 47.1623 36.3695 47.1774 36.3544C47.7929 35.1833 46.9221 33.772 45.6009 33.772H37.4631C35.8115 33.772 34.4753 32.3907 34.5504 30.7241C34.6254 29.1476 35.9767 27.9314 37.5532 27.9314H49.0391C49.4745 27.9314 49.8499 27.6011 49.8949 27.1507C49.97 26.4 50 25.6342 50 24.8535C50 22.3311 49.6247 19.8838 48.919 17.5866ZM14.8817 38.1111C14.4613 38.1111 14.131 38.4414 14.131 38.8618C14.131 41.7596 10.8729 43.8766 7.83997 41.7896C7.05923 41.2491 6.59378 40.3482 6.59378 39.3873V38.8618C6.59378 38.4414 6.26347 38.1111 5.84307 38.1111C5.42267 38.1111 5.09235 38.4414 5.09235 38.8618C5.09235 41.5193 7.0442 43.8315 9.61164 44.0868C10.032 44.1318 10.7377 44.1168 11.1131 44.0868C13.6955 43.9066 15.6324 41.5193 15.6324 38.8618C15.6324 38.4414 15.3021 38.1111 14.8817 38.1111ZM37.1779 15.0041H42.2076C42.9884 15.0041 43.634 14.3585 43.634 13.5778V12.6469L45.0153 13.9682C45.4207 14.3585 46.1113 14.0733 46.1113 13.5027V8.63809C46.1113 8.06755 45.4357 7.78228 45.0153 8.17265L43.634 9.49391V8.56302C43.634 7.78228 42.9884 7.13667 42.2076 7.13667H37.1779C36.3971 7.13667 35.7515 7.78228 35.7515 8.56302V13.5928C35.7515 14.3735 36.3821 15.0041 37.1779 15.0041ZM39.6852 9.38881C40.6161 9.38881 41.3668 10.1395 41.3668 11.0704C41.3668 12.0013 40.6161 12.752 39.6852 12.752C38.7543 12.752 38.0036 12.0013 38.0036 11.0704C38.0036 10.1395 38.7543 9.38881 39.6852 9.38881Z" fill="white"/>
</g>
<defs>
<clipPath id="clip0_139_500">
<rect width="50" height="50" fill="white"/>
</clipPath>
</defs>
</svg>
