<svg width="500" height="500" viewBox="0 0 500 500" fill="none" xmlns="http://www.w3.org/2000/svg">
<path d="M500 0H0V500H500V0Z" fill="#1C1A25"/>
<path d="M180.8 338.6C178 338.6 175.8 340.8 175.8 343.6C175.8 362.9 154.1 377 133.9 363.1C128.7 359.5 125.6 353.5 125.6 347.1V343.6C125.6 340.8 123.4 338.6 120.6 338.6C117.8 338.6 115.6 340.8 115.6 343.6C115.6 361.3 128.6 376.7 145.7 378.4C148.5 378.7 153.2 378.6 155.7 378.4C172.9 377.2 185.8 361.3 185.8 343.6C185.8 340.8 183.6 338.6 180.8 338.6ZM407.5 201.9C406.3 197.9 401.3 196.6 398.2 199.4C380.2 215.6 352.7 221.5 325.1 207.7C315.2 202.8 307.2 195 302.2 185.3C286.8 155.3 294.7 125.4 313.9 107.4C316.9 104.6 316 99.5 312.1 98C293 90.3 272.2 86 250.4 86C204.1 86 162.3 105.1 132.5 135.9C129 139.5 131.6 145.6 136.6 145.6H199.7C210.2 145.6 219.3 153.7 219.7 164.2C220.2 175.3 211.3 184.5 200.3 184.5H107.7C102.8 184.5 98.4 187.5 96.7 192.1L96.6 192.3C93.7 200 99.4 208.2 107.6 208.2H243.6C254.1 208.2 263.2 216.3 263.7 226.8C264.2 237.9 255.3 247.1 244.3 247.1H92.3C88.8 247.1 86 249.9 86 253.4V253.9C86 270.8 88.6 283.5 93.3 298.8C94.5 302.8 99.5 304.1 102.6 301.4C121.1 284.7 149.5 278.9 177.9 294.1C186.4 298.7 193.4 305.7 198 314.2C214.3 344.6 206.4 375.2 186.9 393.3C183.9 396.1 184.9 401.2 188.7 402.7C207.8 410.4 228.6 414.7 250.4 414.7C286.9 414.7 320.6 402.8 347.9 382.7C352.3 379.4 350 372.4 344.5 372.4H283.7C273.2 372.4 264.1 364.3 263.7 353.8C263.2 342.7 272.1 333.5 283.1 333.5H385.3C389.6 333.5 393.6 331.1 395.7 327.3C395.8 327.2 395.8 327 395.9 326.9C400 319.1 394.2 309.7 385.4 309.7H331.2C320.2 309.7 311.3 300.5 311.8 289.4C312.3 278.9 321.3 270.8 331.8 270.8H408.3C411.2 270.8 413.7 268.6 414 265.6C414.5 260.6 414.7 255.5 414.7 250.3C414.7 233.5 412.2 217.2 407.5 201.9ZM165.7 343.2V323.8C165.7 314.9 158.5 307.8 149.6 308.4C141.7 308.9 135.5 315.5 135.5 323.4V343.5C135.5 351.5 141.7 358 149.6 358.5C158.5 359.2 165.7 352.1 165.7 343.2ZM329.3 184.7H362.8C368 184.7 372.3 180.4 372.3 175.2V169L381.5 177.8C384.2 180.4 388.8 178.5 388.8 174.7V142.3C388.8 138.5 384.3 136.6 381.5 139.2L372.3 148V141.8C372.3 136.6 368 132.3 362.8 132.3H329.3C324.1 132.3 319.8 136.6 319.8 141.8V175.3C319.8 180.5 324 184.7 329.3 184.7ZM346 147.3C352.2 147.3 357.2 152.3 357.2 158.5C357.2 164.7 352.2 169.7 346 169.7C339.8 169.7 334.8 164.7 334.8 158.5C334.8 152.3 339.8 147.3 346 147.3Z" fill="url(#paint0_linear_115_526)"/>
<defs>
<linearGradient id="paint0_linear_115_526" x1="86.0036" y1="250.326" x2="414.736" y2="250.326" gradientUnits="userSpaceOnUse">
<stop stop-color="#EF8072"/>
<stop offset="1" stop-color="#F7CEA4"/>
</linearGradient>
</defs>
</svg>
