<svg width="329" height="329" viewBox="0 0 329 329" fill="none" xmlns="http://www.w3.org/2000/svg">
<path d="M79.7 257.2V237.8C79.7 228.9 72.5 221.8 63.6 222.4C55.7 222.9 49.5 229.5 49.5 237.4V257.5C49.5 265.5 55.7 272 63.6 272.5C72.5 273.2 79.7 266.1 79.7 257.2ZM321.5 115.9C320.3 111.9 315.3 110.6 312.2 113.4C294.2 129.6 266.7 135.5 239.1 121.7C229.3 116.8 221.3 109 216.3 99.3C200.9 69.3 208.8 39.4 228 21.4C231 18.6 230.1 13.5 226.2 12C207.1 4.3 186.3 0 164.5 0C118.2 0 76.4 19.1 46.6 49.9C43.1 53.5 45.7 59.6 50.7 59.6H113.8C124.3 59.6 133.4 67.7 133.8 78.2C134.3 89.3 125.4 98.5 114.4 98.5H21.8C16.9 98.5 12.5 101.5 10.8 106.1L10.7 106.3C7.80001 114 13.5 122.2 21.7 122.2H157.7C168.2 122.2 177.3 130.3 177.8 140.8C178.3 151.9 169.4 161.1 158.4 161.1H6.29999C2.79999 161.1 0 163.9 0 167.4V167.9C0 184.8 2.59999 197.5 7.29999 212.8C8.49999 216.8 13.5 218.1 16.6 215.4C35.1 198.7 63.5 192.9 91.9 208.1C100.4 212.7 107.4 219.7 112 228.2C128.3 258.6 120.4 289.2 100.9 307.3C97.9 310.1 98.8999 315.2 102.7 316.7C121.8 324.4 142.6 328.7 164.4 328.7C200.9 328.7 234.6 316.8 261.9 296.7C266.3 293.4 264 286.4 258.5 286.4H197.7C187.2 286.4 178.1 278.3 177.7 267.8C177.2 256.7 186.1 247.5 197.1 247.5H299.3C303.6 247.5 307.6 245.1 309.7 241.3C309.8 241.2 309.8 241 309.9 240.9C314 233.1 308.2 223.7 299.4 223.7H245.2C234.2 223.7 225.3 214.5 225.8 203.4C226.3 192.9 235.3 184.8 245.8 184.8H322.3C325.2 184.8 327.7 182.6 328 179.6C328.5 174.6 328.7 169.5 328.7 164.3C328.7 147.5 326.2 131.2 321.5 115.9ZM94.8 252.6C92 252.6 89.8 254.8 89.8 257.6C89.8 276.9 68.1 291 47.9 277.1C42.7 273.5 39.6 267.5 39.6 261.1V257.6C39.6 254.8 37.4 252.6 34.6 252.6C31.8 252.6 29.6 254.8 29.6 257.6C29.6 275.3 42.6 290.7 59.7 292.4C62.5 292.7 67.2 292.6 69.7 292.4C86.8999 291.2 99.8 275.3 99.8 257.6C99.8 254.8 97.6001 252.6 94.8 252.6ZM243.3 98.7H276.8C282 98.7 286.3 94.4 286.3 89.2V83L295.5 91.8C298.2 94.4 302.8 92.5 302.8 88.7V56.3C302.8 52.5 298.3 50.6 295.5 53.2L286.3 62V55.8C286.3 50.6 282 46.3 276.8 46.3H243.3C238.1 46.3 233.8 50.6 233.8 55.8V89.3C233.8 94.5 238 98.7 243.3 98.7ZM260 61.3C266.2 61.3 271.2 66.3 271.2 72.5C271.2 78.7 266.2 83.7 260 83.7C253.8 83.7 248.8 78.7 248.8 72.5C248.8 66.3 253.8 61.3 260 61.3Z" fill="#FDFDFD"/>
</svg>
