<svg width="283" height="283" viewBox="0 0 283 283" fill="none" xmlns="http://www.w3.org/2000/svg">
<path d="M205.8 198.42H270.28C278.03 180.96 282.35 161.66 282.35 141.36C282.35 125.6 279.76 110.43 274.95 96.26H245.29C236.17 96.26 228.77 88.86 228.77 79.74C228.77 75.18 230.63 71.02 233.6 68.03C236.6 65.03 240.73 63.2 245.29 63.2H258.65C233.36 25.28 190.18 0.26001 141.24 0.26001C92.3001 0.26001 49.1501 25.28 23.8601 63.2H148.37C157.49 63.2 164.91 70.6 164.91 79.74C164.91 84.3 163.05 88.43 160.05 91.43C157.05 94.4 152.92 96.26 148.36 96.26H7.55017C6.20017 100.17 5.0401 104.19 4.1001 108.27H102.42C111.54 108.27 118.96 115.67 118.96 124.81C118.96 129.37 117.1 133.5 114.1 136.5C111.1 139.47 106.97 141.33 102.41 141.33H0.140137V141.36C0.140137 145.38 0.300146 149.38 0.650146 153.34H157.52C166.67 153.34 174.07 160.74 174.07 169.89C174.07 174.45 172.21 178.58 169.24 181.58C166.24 184.58 162.11 186.44 157.53 186.44H7.52014C8.92014 190.52 10.4601 194.51 12.2201 198.42H75.7802C84.9002 198.42 92.3002 205.84 92.3002 214.97C92.3002 219.53 90.4401 223.66 87.4701 226.66C84.4701 229.66 80.3401 231.52 75.7802 231.52H32.7802C58.6902 262.61 97.6901 282.45 141.23 282.45C184.77 282.45 223.79 262.61 249.7 231.52H205.79C196.64 231.52 189.24 224.1 189.24 214.98C189.24 210.42 191.1 206.29 194.07 203.29C197.07 200.29 201.2 198.43 205.78 198.43L205.8 198.42Z" fill="#FDFDFD"/>
</svg>
